<?xml version="1.0" encoding="UTF-8"?>
<svg version="1.1" viewBox="0 0 1668 800" width="1280" height="1280" xmlns="http://www.w3.org/2000/svg">
<path transform="translate(288,10)" d="m0 0h3l4 9 1 5-3 7h-2v4l7 2 1 3v15l-5 6v6l4 2 9 4 5 1h7l4-2 3-8 7-1 1-8 4-4 9-4 13-3 6-1h8l8 4 4 6v2l4 2 4 3h8l10-2 11 2 5 2 3 9 5 8 3 7 6 3 2 3 1 18h7l9 4 4 4v8l8 1 3 5v2l8-4 5 1 3 1 3-5 4 1 1 2-1 6 10 2 4 3 1 3 6-2 3-5 1-6 1-3 10-4 6-6 11 1 9-4 3-3 7-3 12-2 5-3 14-1 6 3 3-1h9l14 2 8 3 1 4 5-2 2-4 4-1 4 8 7 3 4 9 3 3 6-1 6 7 8 16 9 12 1 3 5 1 6-7 3-3 3 1v15l-3 3v4l4 2 1 5-3 3h-2l-2 5-4 8v7l9 2 8 18 1 3v9l4 20 3 20v32l-3 3-6 2 2 6v5l-5 4-8 4-8 7-4 10-10 19-5 13-4 19-2 12v8l1 6-6 8-4 8-7 4-9 16-6 12 2 7v9l-4 3 1 10 7 31 3 7 4 7 6 24 6 14v12l-1 6 7 2 1 3-1 7 9-1 7-1 6 3 4 19 3 9-2 2-6 2 2 12 2 9h-8l-4-3-8-1-3 7h-10l-4 3h-9l-10-1-7-4v5l-6-2-12-3-29-6-4-2v123l-1 1h-394l-1-48-11 4-11 2-21 12-9 6h-11l-1-45-4-12 2-5 4-2-1-8-1-9 1-2 6-2 12-20 3-7-1-5-6-7 3-9 2-7-1-9-3-6-1-19-1-4h-5l-1 6-4-3v-2l-5-2-9-6-5-3-2 4-4-2-3-3-3-1v-7l-3-7h-5l1-7 1-6-2-5-4-2-4-3-15-5-11 2-6 2-4-3h-7l-4-5-2-1h-7l-4 2 2-8-1-5-5-4-4-1-2 5-8-6 1-4 15-12 7-8 5-6 3-8-1-12 4-7 1-5-4-16-9-23-3-15-3-7-6-2v-3l6-1 10 1 6 1 5 3h5l6-12 5-8 3-9-1-6-2-4 6-10 3-8 8 1 3 1-2-7-4-5 1-11-4 1h-13l-12-6-1-4 2-9v-7l-1-5 2-3 13-2 12 1h6l6 7 6 1 3-5 5 5 1 4 5 2h7l2-1-1-11 1-6-1-2-2-13-9-10-4-4-17-4-1-1 1-10 2-12 3-4 9-4 9-2 1-2-5-5-8-6-7-3-1-3 5-14 1-11-11 2-4 2h-6l-5-4-7-11-1-8 4-27-1-6-3-5 1-11 4-6 11-6 3-6 10-3 10-5 5-6 5-10h2l2-5 7-6 4 1 8 1 5-4 4 1 4 12 8 1v9l11 2 13 2 11 4 4 5 6 1 5-2-1-7-2-4 1-7 2-4h11l7-3 3-1 7 3h5l3-4 1-8-3-1-1-7 1-14 1-2 5 1 1 4 5 2 11 4h8l2-4-3-5v-6l1-1 12-1zm248 658-39 3-33 5-15 1-2 2h2l2 5h2l2 4 4 5h2l2 4 8 8 7 8 18 20 9 11 5 7h27v-83zm-95 6v4h2zm-9 4m-13 1v1h5v-1zm22 0m-6 1m-60 1v2h2v2h-9l-12 2v3l10 14 9 11 10 13 11 13 7 9 2 1 20 1h7l4-2-4-2-2-4-9-10-9-11-7-7-9-11-12-14-3-4-1-4-2-2zm-22 7m-14 2-15 5-34 13-18 7-10 5v31l21 1h111l5-1-1-3-13-13-9-11-16-17-14-15-2-2zm-84 32m330 60 1 2z" fill="#D78231"/>
<path transform="translate(257,522)" d="m0 0h285l7 3 9 2 10 3 6 3 10 3 11 3 1 1v253l-1 1h-394v-253l3-2 11-2v-2l24-8 10-1v-2zm279 146-39 3-33 5-15 1-2 2h2l2 5h2l2 4 4 5h2l2 4 8 8 7 8 18 20 9 11 5 7h27v-83zm-95 6v4h2zm-9 4m-13 1v1h5v-1zm22 0m-6 1m-60 1v2h2v2h-9l-12 2v3l10 14 9 11 10 13 11 13 7 9 2 1 20 1h7l4-2-4-2-2-4-9-10-9-11-7-7-9-11-12-14-3-4-1-4-2-2zm-22 7m-14 2-15 5-34 13-18 7-10 5v31l21 1h111l5-1-1-3-13-13-9-11-16-17-14-15-2-2zm-84 32m330 60 1 2z" fill="#2A7B2C"/>
<path transform="translate(435,543)" d="m0 0 103 1v207l-1 1h-105l3-2-5-5-10-11-9-11-7-7-9-11-12-14-3-4-1-4-4-2v2h2v2l-4 1-11 1-6 1 6 9 7 9 7 14h-2l-1 2-28-30-1-1-8 1-17 6-29 11-18 7-9 4v29l-1 2h21v1h-22v-207l1-1zm101 125-39 3-33 5-15 1-2 2h2l2 5h2l2 4 4 5h2l2 4 8 8 7 8 18 20 9 11 5 7h27v-83zm-95 6v4h2zm-9 4m-13 1v1h5v-1z" fill="#887622"/>
<path transform="translate(363,283)" d="m0 0h152l1 1v46l-1 1h-97l1 25 90 1 1 1v44l-1 1h-91v29h101l1 1v45l-1 1h-155l-1-1z" fill="#FEFEFE"/>
<path transform="translate(257,522)" d="m0 0h285l7 3 9 2 10 3 6 3 10 3 11 3 1 1v253h-6l-1-2v-103l-1-16v-30l1-2v-38l-1-3-1-52-6 1-6 2-11 2h-11l-10-5v121l-1 44v39l-3-3-1-44v-160h-103l-173 1-1 204-2 4-4 3h-2v2l-10 8-12 10-10 8-6 5-4 4-3 1h-7v-253l3-2 11-2v-2l24-8 10-1v-2z" fill="#050705"/>
<path transform="translate(257,279)" d="m0 0h27l15 3 12 4 16 8 14 10 5 5-1 5-8 7-23 23-5-2-10-7-12-5-14-2-13 1-13 4-11 8-6 7-6 12-3 14v17l4 16 6 10 7 8 10 6 7 3 5 1h20l16-5 11-6 9-7 4 2 7 7 7 8 11 13 4 5-1 4-14 11-15 8-18 6-19 3h-22l-21-3-15-4-17-8-13-10-8-8-10-15-6-14-5-21-1-7v-20l3-19 6-18 9-16 9-11 7-7 16-11 15-7 20-5z" fill="#FEFEFE"/>
<path transform="translate(542,283)" d="m0 0h54l1 1v194l-1 1h-53l-1-1-1-81v-113z" fill="#FEFEFE"/>
<path transform="translate(211,545)" d="m0 0h24l12 2v2l9 2 1 47v150l-4 5-14 11-13 11-14 11-3 1v-239h2z" fill="#556C14"/>
<path transform="translate(543,546)" d="m0 0 10 5h11l16-3 5-2h3l1 53v24l-1 18v146h-2l-4-5-14-11-17-13-8-6-1-85v-120zm42 236 1 2z" fill="#566C14"/>
<path transform="translate(266,573)" d="m0 0h3l6 9 8 10 12 16 8 11 10 13 9 13 3 4 3 9 3 1 4 12 6 3v4l5 1 6 4 1 3 3 2 6 9 7 9 7 14h-2l-1 2-28-30-1-1-8 1-17 6-29 11-18 7-9 4h-1v-113l2-33z" fill="#887622"/>
<path transform="translate(257,522)" d="m0 0h185l94 2 3 4v12l-2 1h-323l-2-1v-3h3v-2l24-8 10-1v-2z" fill="#0F3009"/>
<path transform="translate(443,677)" d="m0 0h6l2 7h2l6 8 13 13 7 8 18 20 9 11 4 5v2h27v1h-105l3-2-5-5-10-11-9-11-7-7-9-11-12-14-3-4 1-5 29-3h11v-1h15l1 2 4-1z" fill="#6AA36A"/>
<path transform="translate(337,560)" d="m0 0 7 2 8 7 2 4 3 1 6 7v2l3 1 6 8 6 7v2h2l3 4v2h2l2 5h2l7 8 3 5 2 2 3 7-8 3h-3l-5 1-1-2-16-3-6-2-2 1h-8l-3-1-5 1-6-5-5-2-11-6-6-3-6-8-9-5-1-2-2-1-4-4-2-1-3-5-5-4-4-6-6-5-2-4 2-3 10-1 8-1 22-3 11-2z" fill="#948025"/>
<path transform="translate(558,666)" d="m0 0h15l14 3 1 81v37h-2l-4-5-14-11-17-13-8-6v-84l1-1zm27 116 1 2z" fill="#6AA36A"/>
<path transform="translate(822,358)" d="m0 0h273v9l-17 1h-246l-10-1z" fill="#D78231"/>
<path transform="translate(1379,358)" d="m0 0h272l1 1v8l-20 1h-252l-1-1z" fill="#1A5C16"/>
<path transform="translate(266,573)" d="m0 0h3l6 9 8 10 12 16 8 11 10 13 9 13 3 4 3 9 3 1 4 12 6 3v4l5 1 6 4 1 3 3 2 6 9 7 9 7 14h-2l-1 2-28-30-5-2-1-7-2-1 2-3h-5l-1-5h-2v-2l-5-1-3-2v-2l-4-2-4-6-4-2v-2l-4-2-7-8-9-9v-2l-3-1-5-6-5-5-7-6v-2l-4-2v-2l-3-1-1-2v-12l1-21z" fill="#948025"/>
<path transform="translate(1495,412)" d="m0 0h25l6 2 4 4 2 10-2 7-5 2 3 7 4 4v2l3-1 11-26 5-9 2-2h11l5 8 12 28 1 3 2 1-3 1h-11l-2-1-1-4-18-1-1 5-4 1h-23l-5-5-5-7-3-1v12l-2 1h-10l-1-1zm13 10v7l1 2h7l4-5-2-4zm48 5-2 8 1 1h7l-1-5-3-4z" fill="#070804"/>
<path transform="translate(253,722)" d="m0 0 3 1v27l-14 12-11 9-10 8-11 8h-1v-51l7-3 29-8z" fill="#6AA36A"/>
<path transform="translate(209,543)" d="m0 0h45l5 1 2-1h67v1l-66 1-1 204-2 4-4 3h-2v2l-10 8-12 10-10 8-6 5-4 4-3 1h-7v-1h5l1-40 1-209zm2 2v3h-2v239l7-4 12-10 22-18 6-5 1-2v-163l-1-34-9-2v-2l-12-2z" fill="#244115"/>
<path transform="translate(913,412)" d="m0 0h12l5 5 5 6 5-4 5-7h13l1 1v39l-1 1h-11l-1-1v-19l-7 6-2 2-5-1-6-7h-1v19l-3 1h-9l-1-1v-39z" fill="#050603"/>
<path transform="translate(967,412)" d="m0 0h12l5 5 4 5 5-1 6-9h13l1 1v39l-1 1h-9l-2-1v-20l-3 1-6 8-5-1-6-7-2-1v20l-2 1h-9l-1-1z" fill="#050503"/>
<path transform="translate(1229,480)" d="m0 0h9l5 5 11 14 1-19h12l1 1v41h-10l-6-5-9-12-1-1-1 17-3 1h-9l-1-1v-40z" fill="#050503"/>
<path transform="translate(1010,480)" d="m0 0h9l5 5 7 9 5 5v-18l1-1h11l1 1v40l-1 1h-9l-5-4-10-13-1-1-1 17-2 1h-10l-1-1v-40z" fill="#070704"/>
<path transform="translate(1370,480)" d="m0 0h7l5 2 10 13 4 4v-18l1-1h12v41l-1 1h-8l-5-3-11-14-1-3h-2l1 5v14l-2 1h-9l-1-1z" fill="#070703"/>
<path transform="translate(1458,411)" d="m0 0h17l7 3 4 5 3 6v15l-6 9-6 4-4 1h-15l-8-4-6-9-1-4v-10l5-10 6-5zm5 10-5 3-2 4v9l6 6h8l6-5 1-8-3-6-4-3z" fill="#050503"/>
<path transform="translate(1190,412)" d="m0 0h9l5 2 4 6 8 10 1-18h10l2 1v39l-1 1h-8l-5-3-9-12-1-3h-2v17l-3 1h-8l-2-1z" fill="#060704"/>
<path transform="translate(1152,411)" d="m0 0h17l7 3 5 5 3 7v13l-3 6-4 5-5 3-4 1h-14l-8-3-6-7-2-6v-11l4-9 7-6zm7 10-6 3-3 7 2 8 5 4h8l5-4 2-4-1-8-4-5z" fill="#050504"/>
<path transform="translate(874,411)" d="m0 0h19l8 5 4 6 1 3v14l-5 10-8 4-3 1h-14l-7-3-5-5-4-9v-9l6-12zm7 10-5 3-3 4v9l4 5 2 1h8l6-5 1-9-3-5-4-3z" fill="#050604"/>
<path transform="translate(1057,480)" d="m0 0h23l9 3 5 5 3 9v8l-3 9-5 5-5 2-7 1h-19l-1-1zm13 11v19l1 1h8l5-4 1-7-2-7-3-2z" fill="#060704"/>
<path transform="translate(1277,480)" d="m0 0h23l7 2 7 8 2 6v10l-3 8-6 6-12 2h-18l-1-1v-40zm12 11-1 17 2 3h8l5-5 1-7-3-7-2-1z" fill="#060704"/>
<path transform="translate(1115,479)" d="m0 0h11l10 1 1 1v9l-1 1h-20v5h20v10l-20 1v3l21 1 1 1v9l-2 1h-31l-1-1v-41z" fill="#070803"/>
<path transform="translate(1456,480)" d="m0 0h32l1 1v10h-21l1 4 19 1v10l-19 1v3l20 1 1 1v9l-2 1h-31l-1-1z" fill="#040402"/>
<path transform="translate(1188,480)" d="m0 0h31l1 1v9l-1 1-19 1v4h19l1 1v8l-1 1-19 1v4l20-1 1 2v9l-1 1h-31l-1-1z" fill="#070804"/>
<path transform="translate(1260,411)" d="m0 0h11l13 1v10h-21l1 4 19 1v10h-20v6l21-1 1 1v9l-1 1h-32l-1-1v-40z" fill="#050503"/>
<path transform="translate(1327,412)" d="m0 0h32l1 1v8l-1 1h-19v5h19v9l-1 1h-18v6h20l1 1 1 8-1 1h-33l-1-1z" fill="#040403"/>
<path transform="translate(1315,294)" d="m0 0h7l7 6 1 4-13-2-3 1h9l9 4 4 5 2 5v11l-3 7-5 5-7 2h-12l-7-4-5-8-1-10 4-9 5-6 3-7zm-1 20-4 4-1 7 3 5 2 2h8l5-5 1-5-3-6-2-2z" fill="#060704"/>
<path transform="translate(1622,412)" d="m0 0h32l1 1v8l-1 1-19 1v4h19v9l-3 1h-16v6h20l1 9-4 1h-29l-1-1z" fill="#060604"/>
<path transform="translate(1336,480)" d="m0 0h11l8 16 10 23v3h-11l-3-2-1-4-18-1-1 5-4 2h-9l-2-1 2-5 8-17 7-16zm4 16-3 5 1 4h6v-6l-2-3z" fill="#060704"/>
<path transform="translate(1089,411)" d="m0 0h15l7 2-1 9-1 1-9-1-8-1 2 4 12 3 6 3 3 6v7l-4 6-4 3-12 2-11-2-5-4 1-7 1-2h6l5 2h9v-3l-15-3-6-5-1-10 4-7z" fill="#060704"/>
<path transform="translate(1049,411)" d="m0 0h16l6 2 1 5-2 5-17-1 2 3 12 3 6 4 3 6v6l-4 6-4 3-11 2-12-2-4-2-1-2v-6l3-3 6 1 3 1h10v-3l-17-4-5-6v-9l3-5 3-3z" fill="#060604"/>
<path transform="translate(553,543)" d="m0 0h34l2 1v42h-1l-1-39-6 1-6 2-11 2h-11l-10-5v121l-1 44v39l-3-3-1-44v-160z" fill="#0D2E08"/>
<path transform="translate(1145,480)" d="m0 0h26l6 3 4 6v13l-4 6-4 2-16 1v10l-1 1h-10l-1-1zm12 11-1 5 2 4h8l3-2-1-6-1-1z" fill="#060604"/>
<path transform="translate(262,529)" d="m0 0h53l23 1 15 3h5l1 3 8-1 8 3v2h-114v-10z" fill="#2A4118"/>
<path transform="translate(1068,304)" d="m0 0h11l7 2 5 5 2 5v25l-1 1h-22l-9-3-6-8-1-3v-9l3-8 6-5zm5 9-6 2-2 3v9l5 5h8l5-6v-7l-5-5z" fill="#070704"/>
<path transform="translate(972,305)" d="m0 0h23l5 2 2 5 1 22-3 5-5 2h-22l-2-1v-34zm10 8v5l7 1 2-1-1-5zm3 13-4 2 2 4h9l1-4-1-2z" fill="#060704"/>
<path transform="translate(1379,411)" d="m0 0h18l3 3 1 7-2 3-7-1h-10l-3 3-1 2v9l4 5 5 1 6-2 5-1 5 4v5l-5 4-4 1h-15l-7-3-5-6-2-5v-15l5-8 6-5z" fill="#060604"/>
<path transform="translate(835,411)" d="m0 0h15l6 3 2 2-1 5-4 3-6-1h-9l-5 5v8l4 6 7 1 9-4 5 5 1 4-5 4-6 2h-14l-6-3-6-7-2-5v-13l3-7 7-6z" fill="#050503"/>
<path transform="translate(1538,304)" d="m0 0h10l9 3 5 7 1 3v11l-4 8-5 4-6 2h-10l-7-3-6-7-1-3v-11l4-9 6-4zm3 9-6 4v10l4 5h8l5-4 1-7-3-5-4-3z" fill="#070904"/>
<path transform="translate(826,305)" d="m0 0h22l7 3 2 10-2 8-3 3 2 4 4 4v2l2 1-2 1h-10l-3-1-5-8-4-2 1 2v8l-1 1h-9l-1-1zm13 8-2 1v7l5 1 4-2v-5z" fill="#070805"/>
<path transform="translate(1419,305)" d="m0 0h22l6 3 4 4 2 6v10l-4 8-6 4-6 1h-17l-1-1zm12 8-1 1-1 15 1 3h7l5-5v-8l-4-5z" fill="#060604"/>
<path transform="translate(1182,305)" d="m0 0h21l6 2 5 5 2 4v13l-3 6-4 4-10 2h-14l-3-1zm13 8-2 1-1 7v9l2 2h6l5-5 1-2v-6l-5-5z" fill="#060704"/>
<path transform="translate(1586,305)" d="m0 0h19l7 2 3 3 1 3v9l-5 7 1 3 5 5v3h-12l-5-8-4-2 1 9-1 1h-10l-1-1v-33zm12 8-2 3 1 5 5 1 3-2-1-6z" fill="#060604"/>
<path transform="translate(931,305)" d="m0 0h10l1 1 1 22 1 3 5 1 3-2 1-3v-21l1-1h10l1 1v25l-4 6-5 4-4 1h-9l-6-3-4-5-2-5z" fill="#080A05"/>
<path transform="translate(1138,305)" d="m0 0h27l1 1-1 20-18 1 1 5h17l1 1v7l-8 1h-19l-2-1v-33zm11 8-1 5h15l1-4-2-1z" fill="#070905"/>
<path transform="translate(1374,305)" d="m0 0h27l1 1v8h-16v3h14l1 1v8l-16 2v4h17l1 1v7l-2 1h-26l-1-1z" fill="#050603"/>
<path transform="translate(468,530)" d="m0 0 3 1v2l3-3h4 48l4 1h5l2 2 1 7h-102l2-4h4v2h2v-2l4-3h3v2h4v-3l10 1 1-2 2 1z" fill="#2A4118"/>
<path transform="translate(1221,305)" d="m0 0h27l1 1v7l-4 1-13-1v5l16-1v9l-1 1h-16l1 5h17l1 1v7l-1 1h-25l-3-1z" fill="#060704"/>
<path transform="translate(1622,305)" d="m0 0h27l1 2v6l-3 1-15-1v5l16-1 1 2v7l-2 1h-12l-3 2 1 2 17 1 1 2v6l-3 1h-25l-1-1z" fill="#090C06"/>
<path transform="translate(896,305)" d="m0 0h23l5 2 3 4 1 4v10l-8 6-5 1h-8v8l-3 1h-7l-1-1zm12 9-1 1v6l3 2 5-1 2-2-1-5z" fill="#060704"/>
<path transform="translate(864,305)" d="m0 0h26v9h-17l1 3 16 1v8l-18 1 2 4 17 1 1 1v7l-1 1h-27l-1-4v-31z" fill="#070804"/>
<path transform="translate(1414,480)" d="m0 0h36l1 1v9l-1 1h-11v30l-1 1h-11l-1-1v-30h-12z" fill="#060603"/>
<path transform="translate(1098,305)" d="m0 0h9l1 1 1 22 3 3h8l1-26h10l1 1v19l-2 9-4 5-4 2h-16l-5-4-3-6z" fill="#080904"/>
<path transform="translate(435,543)" d="m0 0 103 1v5l-1-4-44 1-152 1h-64l-14 1v201l-1 2h21v1h-22v-207l1-1z" fill="#556E1B"/>
<path transform="translate(1405,412)" d="m0 0h37l1 3-2 6-1 1h-10v30l-1 1h-12l-1-30-11-1-2-4z" fill="#040403"/>
<path transform="translate(1520,304)" d="m0 0 4 1-1 5-10 25-3 5-9 1-5-6-8-20-3-7v-3h11l3 4 6 15 3-8 4-10 1-1z" fill="#060705"/>
<path transform="translate(1279,304)" d="m0 0h9l7 2 1 1v6l-2 3-14-1-4 4v9l3 3 4 1 7-2 4-1 3 5-1 4-4 3-3 1h-12l-6-3-5-6-2-5v-9l3-8 7-6z" fill="#070805"/>
<path transform="translate(1291,412)" d="m0 0h11l1 1v30h20l1 9-1 1h-31l-1-1z" fill="#060703"/>
<path transform="translate(1586,412)" d="m0 0h11l1 1v30h20v9l-1 1h-30l-1-1z" fill="#080904"/>
<path transform="translate(589,602)" d="m0 0h1v38l-1 2v30l1 17v104h5v1h-6l-4-5-13-10-13-11-17-13-4-4v-47h1l1 42h1v-34l1-44h1l1 84 16 12 14 11 11 9 1 3h2l-1-3v-143z" fill="#27581D"/>
<path transform="translate(1008,305)" d="m0 0h10l1 1v26h17l1 1v7l-3 1h-25l-1-1z" fill="#090B06"/>
<path transform="translate(1339,305)" d="m0 0h32l1 1v7l-2 1h-10v15l-1 11-1 1-8-1-1-25-9-1-1-1z" fill="#060703"/>
<path transform="translate(258,598)" d="m0 0 2 2 1 82v67l-2 4-3-1v-82l1-28v-42z" fill="#14380C"/>
<path transform="translate(988,480)" d="m0 0h12l1 1v40l-1 1h-11l-1-1z" fill="#090B04"/>
<path transform="translate(1021,412)" d="m0 0h11l2 1v40h-13z" fill="#070703"/>
<path transform="translate(553,543)" d="m0 0h34l2 1v42h-1l-1-39-6 1-6 2-11 2h-11l-10-5-1 46-1-3h-2l-1 2v-48z" fill="#104B0A"/>
<path transform="translate(1120,412)" d="m0 0h12l1 1v39l-2 1h-9l-2-1z" fill="#060704"/>
<path transform="translate(542,523)" d="m0 0 16 4 10 3 6 3 10 3 7 2v1l-5 1h-44l-1-3v-11z" fill="#144E0C"/>
<path transform="translate(1472,305)" d="m0 0h11v35l-2 1h-8l-1-1z" fill="#050503"/>
<path transform="translate(1039,305)" d="m0 0h10l1 1v34l-1 1h-9l-1-1z" fill="#050604"/>
<path transform="translate(1569,305)" d="m0 0h9l1 1v34l-2 1h-7l-2-1v-34z" fill="#0A0C05"/>
<path transform="translate(261,543)" d="m0 0h67v1l-66 1-1 137h-1l-1-82-1 3v39h-1l-1-9v-73h1l2 12 1-28z" fill="#254216"/>
<path transform="translate(501,552)" d="m0 0 5 1 2 3 7 4 11 4 3 2v2l4 2 4 6v8l-1 2-4-2-13-13-4-3v-2l-4-2-8-8z" fill="#948025"/>
<path transform="translate(209,543)" d="m0 0h45l6 1v28l-1 15h-1l-1-20-1-7v-9l-7-1-2-1v-2h-9l-6-1h-17l-4-1v3h-2v18h-1v-22z" fill="#10430A"/>
<path transform="translate(352,687)" d="m0 0 4 1 6 9 7 9 7 14h-2l-1 2-28-30-5-2 2-2z" fill="#639E62"/>
<path transform="translate(589,602)" d="m0 0h1v38l-1 2v30l1 17-1 96-2-1v-143z" fill="#1B5717"/>
<path transform="translate(232,529)" d="m0 0 3 1-3 1v3l20-1 3 3v3l-1 1-40 1-2-1v-3h3v-2z" fill="#15520C"/>
<path transform="translate(258,598)" d="m0 0 2 2v102h-1l-2-14v-88z" fill="#0D2808"/>
<path transform="translate(538,544)" d="m0 0h8l-3 3-1 46-1-3h-2l-1 2z" fill="#173E0E"/>
<path transform="translate(542,523)" d="m0 0 16 4 9 4v3l-16-2h-6l-3 1-1 4v-11z" fill="#14350B"/>
<path transform="translate(1315,294)" d="m0 0h7l7 6 1 4-13-2-9 3 1-6z" fill="#0D120A"/>
<path transform="translate(1459,305)" d="m0 0h9l-2 9-3 5-5 1-2-2 2-11z" fill="#0D1008"/>
<path transform="translate(1268,399)" d="m0 0h9l1 2-6 8-8 1-1-1 1-7 1-2z" fill="#090C06"/>
<path transform="translate(254,544)" d="m0 0h6v28l-1 15h-1l-1-20-1-7v-15z" fill="#14370C"/>
<path transform="translate(1123,468)" d="m0 0h6l2 1-2 4-4 4-7 1-1-1v-6l2-2z" fill="#0D120C"/>
<path transform="translate(877,294)" d="m0 0h8l1 2-4 6-2 1h-7l1-7z" fill="#0E1209"/>
<path transform="translate(235,544)" d="m0 0h19l2 1v6l-7-1-2-1v-2h-9l-3-1z" fill="#10530B"/>
<path transform="translate(220,533)" d="m0 0h7l-2 4h-3v2h7v1l-15 1-2-1v-3h3v-2z" fill="#223F10"/>
<path transform="translate(208,758)" d="m0 0h1l1 28 5-2-5 8-2 2h-7v-1h5l1-4z" fill="#235E1B"/>
<path transform="translate(222,777)" d="m0 0 2 1-3 4h-2l1 3-5 4-4 4-2-2 9-11z" fill="#12430C"/>
<path transform="translate(583,627)" d="m0 0 4 1 1 9-4-1-3-4 1-4z" fill="#897622"/>
<path transform="translate(398,536)" d="m0 0h4l1 4h-15l4-2 4-1z" fill="#2A4118"/>
<path transform="translate(147,664)" d="m0 0 5 2v2l-6-1z" fill="#D88231"/>
<path transform="translate(10,515)" d="m0 0h4v2l-4 1z" fill="#D88231"/>
<path transform="translate(146,670)" d="m0 0 2 1-2 4z" fill="#D88231"/>
<path transform="translate(395,748)" d="m0 0" fill="#8CB78D"/>
<path transform="translate(263,741)" d="m0 0" fill="#8CB78D"/>
</svg>
