<?xml version="1.0" encoding="UTF-8"?>
<!DOCTYPE svg PUBLIC "-//W3C//DTD SVG 1.1//EN" "http://www.w3.org/Graphics/SVG/1.1/DTD/svg11.dtd">
<svg xmlns="http://www.w3.org/2000/svg" version="1.1" width="189px" height="200px" style="shape-rendering:geometricPrecision; text-rendering:geometricPrecision; image-rendering:optimizeQuality; fill-rule:evenodd; clip-rule:evenodd" xmlns:xlink="http://www.w3.org/1999/xlink">
<g><path style="opacity:0.983" fill="#da812e" d="M 147.5,167.5 C 147.5,161.833 147.5,156.167 147.5,150.5C 147.5,145.167 147.5,139.833 147.5,134.5C 146.5,134.5 145.5,134.5 144.5,134.5C 141.317,132.99 137.984,131.657 134.5,130.5C 110.5,130.5 86.5,130.5 62.5,130.5C 58.1089,131.681 53.7755,133.014 49.5,134.5C 48.5034,151.325 48.1701,168.325 48.5,185.5C 48.5,185.833 48.5,186.167 48.5,186.5C 43.1691,188.498 37.8358,190.498 32.5,192.5C 32.7184,187.789 32.3851,183.122 31.5,178.5C 32.5649,173.806 33.7316,169.139 35,164.5C 38.2007,164.766 38.3673,163.6 35.5,161C 36.2598,159.559 36.9264,158.059 37.5,156.5C 36.7695,153.891 36.2695,151.224 36,148.5C 35.586,148.957 35.086,149.291 34.5,149.5C 32.5266,148.36 30.6933,147.027 29,145.5C 28.2825,146.451 27.4491,146.617 26.5,146C 25.0621,142.906 23.7287,139.74 22.5,136.5C 19.9876,134.533 17.321,134.2 14.5,135.5C 11.9795,134.215 9.31282,133.548 6.5,133.5C 6.76202,132.022 6.42869,130.689 5.5,129.5C 3.80513,130.292 2.13846,129.958 0.5,128.5C 6.93818,124.892 10.2715,119.392 10.5,112C 8.6821,106.35 6.6821,100.85 4.5,95.5C 7.11784,95.7792 9.61784,96.4459 12,97.5C 14.5641,94.5956 15.7307,91.429 15.5,88C 15.7519,85.1911 17.0852,83.1911 19.5,82C 18.6634,80.9887 18.33,79.8221 18.5,78.5C 16.4086,78.6816 14.4086,78.3482 12.5,77.5C 11.8316,75.0743 11.4982,72.741 11.5,70.5C 15.5287,68.0834 19.3621,68.4167 23,71.5C 23.3333,70.8333 23.6667,70.1667 24,69.5C 26.4585,73.3811 27.9585,73.2145 28.5,69C 28.1825,64.1771 25.6825,61.3438 21,60.5C 19.4227,55.9077 20.9227,52.9077 25.5,51.5C 24.3291,49.8307 22.9958,48.3307 21.5,47C 23.4023,42.908 22.4023,41.408 18.5,42.5C 16.9121,41.9904 15.7455,40.9904 15,39.5C 14.2974,36.2875 14.4641,33.1208 15.5,30C 15.0969,28.5272 14.4303,27.1939 13.5,26C 15.7026,21.9733 19.036,19.14 23.5,17.5C 24.8034,15.0629 26.4701,12.8962 28.5,11C 30.7638,11.6981 32.5972,11.1981 34,9.5C 35.1882,10.5634 35.6882,11.8967 35.5,13.5C 36.5,13.5 37.5,13.5 38.5,13.5C 38.5,14.5 38.5,15.5 38.5,16.5C 42.3164,16.0206 45.6497,17.0206 48.5,19.5C 49.3081,19.1924 49.9747,18.6924 50.5,18C 49.6198,16.6439 49.2865,15.1439 49.5,13.5C 52.4168,12.7089 55.2501,12.7089 58,13.5C 58.3742,12.5838 58.8742,11.7504 59.5,11C 58.2234,8.53415 58.2234,6.03415 59.5,3.5C 61.2601,6.02116 63.5934,6.85449 66.5,6C 65.6634,4.98873 65.33,3.82207 65.5,2.5C 67.2624,2.64271 68.9291,2.30937 70.5,1.5C 73.6795,3.42376 74.0128,5.59042 71.5,8C 72.6241,8.83884 73.2908,10.0055 73.5,11.5C 72.0529,16.8074 74.0529,18.4741 79.5,16.5C 81.7674,11.7754 85.6008,9.4421 91,9.5C 93.7223,9.94084 95.5557,11.4408 96.5,14C 98.1786,14.3947 99.8453,14.228 101.5,13.5C 103.33,13.7763 104.997,14.443 106.5,15.5C 107.018,17.8998 108.185,19.8998 110,21.5C 110.494,23.1341 110.66,24.8008 110.5,26.5C 111.93,26.4208 113.264,26.7542 114.5,27.5C 116.281,30.8685 118.781,32.5352 122,32.5C 123.516,29.9485 124.349,30.2819 124.5,33.5C 125.93,33.4208 127.264,33.7542 128.5,34.5C 129.641,32.1921 131.308,30.3587 133.5,29C 136.176,30.0721 138.509,29.4055 140.5,27C 147.374,24.2106 154.208,24.3773 161,27.5C 161.308,26.6919 161.808,26.0253 162.5,25.5C 164.503,27.1331 165.836,29.1331 166.5,31.5C 167.822,31.33 168.989,31.6634 170,32.5C 171.608,35.772 173.608,38.772 176,41.5C 176.368,40.09 177.201,39.09 178.5,38.5C 179.112,41.0818 179.445,43.5818 179.5,46C 178.38,47.7374 177.38,49.5708 176.5,51.5C 178.709,52.063 180.209,53.3964 181,55.5C 182.16,61.457 182.993,67.457 183.5,73.5C 183.552,79.4068 181.052,83.7401 176,86.5C 172.13,93.3142 170.13,100.648 170,108.5C 168.907,110.972 167.24,112.972 165,114.5C 162.964,118.136 161.798,121.803 161.5,125.5C 164.607,135.549 167.773,145.549 171,155.5C 172.356,154.62 173.856,154.286 175.5,154.5C 175.851,157.238 176.518,159.904 177.5,162.5C 175.309,164.208 174.976,166.208 176.5,168.5C 175.078,169.547 173.578,169.547 172,168.5C 171.055,168.905 170.388,169.572 170,170.5C 162.5,170.861 155,169.861 147.5,167.5 Z"/></g>
<g><path style="opacity:1" fill="#fefcfa" d="M 57.5,69.5 C 67.209,68.0559 76.0424,70.0559 84,75.5C 84.6667,76.5 84.6667,77.5 84,78.5C 81.8333,80.6667 79.6667,82.8333 77.5,85C 74.9728,84.0887 72.3062,83.0887 69.5,82C 57.4037,81.4385 52.237,87.2718 54,99.5C 56.9588,107.23 62.4588,110.063 70.5,108C 73.2487,106.877 75.7487,105.377 78,103.5C 79.9606,106.463 82.294,109.129 85,111.5C 85.1626,113.387 84.3293,114.887 82.5,116C 70.0095,122.576 58.0095,121.909 46.5,114C 38.3844,103.057 37.5511,91.5571 44,79.5C 47.8018,75.0366 52.3018,71.7033 57.5,69.5 Z"/></g>
<g><path style="opacity:1" fill="#fefdfb" d="M 103.5,88.5 C 110.648,89.4916 117.981,89.825 125.5,89.5C 125.5,92.8333 125.5,96.1667 125.5,99.5C 117.981,99.175 110.648,99.5084 103.5,100.5C 103.5,102.833 103.5,105.167 103.5,107.5C 111.833,107.5 120.167,107.5 128.5,107.5C 128.5,111.5 128.5,115.5 128.5,119.5C 115.5,119.5 102.5,119.5 89.5,119.5C 89.5,103.167 89.5,86.8333 89.5,70.5C 102.167,70.5 114.833,70.5 127.5,70.5C 127.5,74.5 127.5,78.5 127.5,82.5C 119.5,82.5 111.5,82.5 103.5,82.5C 103.5,84.5 103.5,86.5 103.5,88.5 Z"/></g>
<g><path style="opacity:1" fill="#fefaf6" d="M 133.5,70.5 C 138.167,70.5 142.833,70.5 147.5,70.5C 147.5,86.8333 147.5,103.167 147.5,119.5C 142.833,119.5 138.167,119.5 133.5,119.5C 133.5,103.167 133.5,86.8333 133.5,70.5 Z"/></g>
<g><path style="opacity:1" fill="#f4d9c0" d="M 103.5,88.5 C 111.167,88.5 118.833,88.5 126.5,88.5C 126.5,92.5 126.5,96.5 126.5,100.5C 118.833,100.5 111.167,100.5 103.5,100.5C 110.648,99.5084 117.981,99.175 125.5,99.5C 125.5,96.1667 125.5,92.8333 125.5,89.5C 117.981,89.825 110.648,89.4916 103.5,88.5 Z"/></g>
<g><path style="opacity:1" fill="#132804" d="M 62.5,130.5 C 86.5,130.5 110.5,130.5 134.5,130.5C 134.5,131.833 134.5,133.167 134.5,134.5C 133.833,134.5 133.167,134.5 132.5,134.5C 132.5,133.5 132.5,132.5 132.5,131.5C 109.833,131.5 87.1667,131.5 64.5,131.5C 64.5,132.5 64.5,133.5 64.5,134.5C 83.674,134.17 102.674,134.503 121.5,135.5C 102.167,135.5 82.8333,135.5 63.5,135.5C 62.1667,135.5 60.8333,135.5 59.5,135.5C 60.209,134.596 61.209,134.263 62.5,134.5C 62.5,133.167 62.5,131.833 62.5,130.5 Z"/></g>
<g><path style="opacity:1" fill="#184604" d="M 62.5,130.5 C 62.5,131.833 62.5,133.167 62.5,134.5C 61.209,134.263 60.209,134.596 59.5,135.5C 56.5,135.5 53.5,135.5 50.5,135.5C 49.8333,135.5 49.5,135.167 49.5,134.5C 53.7755,133.014 58.1089,131.681 62.5,130.5 Z"/></g>
<g><path style="opacity:1" fill="#264807" d="M 132.5,134.5 C 132.5,134.833 132.5,135.167 132.5,135.5C 129.167,135.5 125.833,135.5 122.5,135.5C 122.167,135.5 121.833,135.5 121.5,135.5C 102.674,134.503 83.674,134.17 64.5,134.5C 64.5,133.5 64.5,132.5 64.5,131.5C 87.1667,131.5 109.833,131.5 132.5,131.5C 132.5,132.5 132.5,133.5 132.5,134.5 Z"/></g>
<g><path style="opacity:1" fill="#164e03" d="M 134.5,130.5 C 137.984,131.657 141.317,132.99 144.5,134.5C 141.167,134.5 137.833,134.5 134.5,134.5C 134.5,133.167 134.5,131.833 134.5,130.5 Z"/></g>
<g><path style="opacity:1" fill="#172305" d="M 49.5,134.5 C 49.5,135.167 49.8333,135.5 50.5,135.5C 50.5,136.833 50.5,138.167 50.5,139.5C 50.5,154.167 50.5,168.833 50.5,183.5C 50.5,183.833 50.5,184.167 50.5,184.5C 49.8333,184.833 49.1667,185.167 48.5,185.5C 48.1701,168.325 48.5034,151.325 49.5,134.5 Z"/></g>
<g><path style="opacity:1" fill="#5b6313" d="M 63.5,135.5 C 82.8333,135.5 102.167,135.5 121.5,135.5C 121.833,135.5 122.167,135.5 122.5,135.5C 122.5,135.833 122.5,136.167 122.5,136.5C 109.167,136.5 95.8333,136.5 82.5,136.5C 76.5,136.5 70.5,136.5 64.5,136.5C 64.5,138.5 64.5,140.5 64.5,142.5C 64.5,145.5 64.5,148.5 64.5,151.5C 64.5,160.833 64.5,170.167 64.5,179.5C 63.504,165.01 63.1707,150.343 63.5,135.5 Z"/></g>
<g><path style="opacity:1" fill="#001b00" d="M 132.5,135.5 C 132.5,135.167 132.5,134.833 132.5,134.5C 133.167,134.5 133.833,134.5 134.5,134.5C 137.833,134.5 141.167,134.5 144.5,134.5C 145.5,134.5 146.5,134.5 147.5,134.5C 147.5,139.833 147.5,145.167 147.5,150.5C 146.833,150.167 146.167,149.833 145.5,149.5C 145.5,149.167 145.5,148.833 145.5,148.5C 145.5,144.167 145.5,139.833 145.5,135.5C 141.167,135.5 136.833,135.5 132.5,135.5 Z"/></g>
<g><path style="opacity:1" fill="#42830d" d="M 62.5,148.5 C 59.8419,145.876 57.1752,143.209 54.5,140.5C 53.7101,139.206 52.7101,138.039 51.5,137C 61.3432,134.678 65.0099,138.512 62.5,148.5 Z"/></g>
<g><path style="opacity:1" fill="#84941b" d="M 122.5,136.5 C 122.5,136.167 122.5,135.833 122.5,135.5C 125.833,135.5 129.167,135.5 132.5,135.5C 132.5,138.833 132.5,142.167 132.5,145.5C 129.167,142.5 125.833,139.5 122.5,136.5 Z"/></g>
<g><path style="opacity:1" fill="#8f771e" d="M 82.5,136.5 C 95.8333,136.5 109.167,136.5 122.5,136.5C 125.833,139.5 129.167,142.5 132.5,145.5C 132.5,145.833 132.5,146.167 132.5,146.5C 132.5,153.167 132.5,159.833 132.5,166.5C 125.188,167.347 117.854,168.013 110.5,168.5C 110.167,168.5 109.833,168.5 109.5,168.5C 100.5,157.833 91.5,147.167 82.5,136.5 Z"/></g>
<g><path style="opacity:1" fill="#578e12" d="M 145.5,148.5 C 145.5,148.833 145.5,149.167 145.5,149.5C 145.5,152.5 145.5,155.5 145.5,158.5C 142.105,155.098 138.438,152.098 134.5,149.5C 134.5,148.833 134.5,148.167 134.5,147.5C 134.335,144.15 134.502,140.817 135,137.5C 138.055,141.624 141.555,145.291 145.5,148.5 Z"/></g>
<g><path style="opacity:1" fill="#566f12" d="M 50.5,139.5 C 51.7079,140.234 53.0413,140.567 54.5,140.5C 57.1752,143.209 59.8419,145.876 62.5,148.5C 62.5,158.833 62.5,169.167 62.5,179.5C 58.6079,181.14 54.6079,182.473 50.5,183.5C 50.5,168.833 50.5,154.167 50.5,139.5 Z"/></g>
<g><path style="opacity:1" fill="#446e0d" d="M 132.5,135.5 C 136.833,135.5 141.167,135.5 145.5,135.5C 145.5,139.833 145.5,144.167 145.5,148.5C 141.555,145.291 138.055,141.624 135,137.5C 134.502,140.817 134.335,144.15 134.5,147.5C 133.833,147.167 133.167,146.833 132.5,146.5C 132.5,146.167 132.5,145.833 132.5,145.5C 132.5,142.167 132.5,138.833 132.5,135.5 Z"/></g>
<g><path style="opacity:1" fill="#8e801d" d="M 82.5,136.5 C 91.5,147.167 100.5,157.833 109.5,168.5C 101.766,168.994 94.0993,169.994 86.5,171.5C 79.8925,161.286 72.5592,151.619 64.5,142.5C 64.5,140.5 64.5,138.5 64.5,136.5C 70.5,136.5 76.5,136.5 82.5,136.5 Z"/></g>
<g><path style="opacity:1" fill="#587112" d="M 134.5,149.5 C 138.438,152.098 142.105,155.098 145.5,158.5C 145.5,161.167 145.5,163.833 145.5,166.5C 141.85,165.325 138.183,165.325 134.5,166.5C 134.5,160.833 134.5,155.167 134.5,149.5 Z"/></g>
<g><path style="opacity:1" fill="#8b8d1c" d="M 64.5,142.5 C 72.5592,151.619 79.8925,161.286 86.5,171.5C 85.5,171.5 84.5,171.5 83.5,171.5C 77.1389,164.807 70.8056,158.14 64.5,151.5C 64.5,148.5 64.5,145.5 64.5,142.5 Z"/></g>
<g><path style="opacity:1" fill="#81761b" d="M 64.5,151.5 C 70.8056,158.14 77.1389,164.807 83.5,171.5C 77.2381,174.149 70.9048,176.815 64.5,179.5C 64.5,170.167 64.5,160.833 64.5,151.5 Z"/></g>
<g><path style="opacity:0.79" fill="#134f02" d="M 132.5,146.5 C 133.167,146.833 133.833,147.167 134.5,147.5C 134.5,148.167 134.5,148.833 134.5,149.5C 134.5,155.167 134.5,160.833 134.5,166.5C 134.334,173.508 134.5,180.508 135,187.5C 136.21,190.199 135.543,190.199 133,187.5C 132.5,180.508 132.334,173.508 132.5,166.5C 132.5,159.833 132.5,153.167 132.5,146.5 Z"/></g>
<g><path style="opacity:0.593" fill="#026500" d="M 145.5,166.5 C 145.5,177.167 145.5,187.833 145.5,198.5C 142.167,198.5 138.833,198.5 135.5,198.5C 133.42,194.914 130.754,191.747 127.5,189C 128.833,188.667 130.167,188.333 131.5,188C 129.423,187.808 127.423,187.308 125.5,186.5C 120.477,180.481 115.477,174.481 110.5,168.5C 117.854,168.013 125.188,167.347 132.5,166.5C 132.334,173.508 132.5,180.508 133,187.5C 135.543,190.199 136.21,190.199 135,187.5C 134.5,180.508 134.334,173.508 134.5,166.5C 138.183,165.325 141.85,165.325 145.5,166.5 Z"/></g>
<g><path style="opacity:0.976" fill="#013100" d="M 145.5,149.5 C 146.167,149.833 146.833,150.167 147.5,150.5C 147.5,156.167 147.5,161.833 147.5,167.5C 148.142,178.221 147.475,188.554 145.5,198.5C 145.5,187.833 145.5,177.167 145.5,166.5C 145.5,163.833 145.5,161.167 145.5,158.5C 145.5,155.5 145.5,152.5 145.5,149.5 Z"/></g>
<g><path style="opacity:0.562" fill="#026c00" d="M 109.5,168.5 C 109.833,168.5 110.167,168.5 110.5,168.5C 115.477,174.481 120.477,180.481 125.5,186.5C 127.423,187.308 129.423,187.808 131.5,188C 130.167,188.333 128.833,188.667 127.5,189C 130.754,191.747 133.42,194.914 135.5,198.5C 129.167,198.5 122.833,198.5 116.5,198.5C 114.409,195.229 112.076,192.063 109.5,189C 106.303,188.013 103.47,188.513 101,190.5C 100.5,190 100,189.5 99.5,189C 87.6595,188.831 75.9928,188.331 64.5,187.5C 64.5,184.833 64.5,182.167 64.5,179.5C 70.9048,176.815 77.2381,174.149 83.5,171.5C 84.5,171.5 85.5,171.5 86.5,171.5C 94.0993,169.994 101.766,168.994 109.5,168.5 Z"/></g>
<g><path style="opacity:0.759" fill="#165203" d="M 50.5,135.5 C 53.5,135.5 56.5,135.5 59.5,135.5C 60.8333,135.5 62.1667,135.5 63.5,135.5C 63.1707,150.343 63.504,165.01 64.5,179.5C 64.5,182.167 64.5,184.833 64.5,187.5C 63.399,188.8 62.0657,189.3 60.5,189C 62.3398,186.174 63.0065,183.007 62.5,179.5C 62.5,169.167 62.5,158.833 62.5,148.5C 65.0099,138.512 61.3432,134.678 51.5,137C 52.7101,138.039 53.7101,139.206 54.5,140.5C 53.0413,140.567 51.7079,140.234 50.5,139.5C 50.5,138.167 50.5,136.833 50.5,135.5 Z"/></g>
<g><path style="opacity:0.828" fill="#003400" d="M 50.5,184.5 C 50.2256,189.263 50.559,193.93 51.5,198.5C 50.5,198.5 49.5,198.5 48.5,198.5C 48.5,194.5 48.5,190.5 48.5,186.5C 48.5,186.167 48.5,185.833 48.5,185.5C 49.1667,185.167 49.8333,184.833 50.5,184.5 Z"/></g>
<g><path style="opacity:0.791" fill="#006500" d="M 62.5,179.5 C 63.0065,183.007 62.3398,186.174 60.5,189C 62.0657,189.3 63.399,188.8 64.5,187.5C 75.9928,188.331 87.6595,188.831 99.5,189C 100,189.5 100.5,190 101,190.5C 103.47,188.513 106.303,188.013 109.5,189C 112.076,192.063 114.409,195.229 116.5,198.5C 94.8333,198.5 73.1667,198.5 51.5,198.5C 50.559,193.93 50.2256,189.263 50.5,184.5C 50.5,184.167 50.5,183.833 50.5,183.5C 54.6079,182.473 58.6079,181.14 62.5,179.5 Z"/></g>
</svg>
